<mxfile host="app.diagrams.net" modified="2022-06-12T16:14:42.088Z" agent="5.0 (Windows NT 10.0; Win64; x64) AppleWebKit/537.36 (KHTML, like Gecko) Chrome/102.0.5005.115 Safari/537.36" etag="NEAg7GK6VO2BZNWD578m" version="20.0.0" type="github">
  <diagram id="fBIJwO9g-23Rpi8MvyGk" name="Page-1">
    <mxGraphModel dx="868" dy="417" grid="1" gridSize="10" guides="1" tooltips="1" connect="1" arrows="1" fold="1" page="1" pageScale="1" pageWidth="850" pageHeight="1100" math="0" shadow="0">
      <root>
        <mxCell id="0" />
        <mxCell id="1" parent="0" />
        <mxCell id="o-W3HBe7OVP9hOMBKpzI-1" value="Rumusan Masalah" style="swimlane;fontStyle=1;childLayout=stackLayout;horizontal=1;startSize=26;horizontalStack=0;resizeParent=1;resizeParentMax=0;resizeLast=0;collapsible=1;marginBottom=0;align=center;fontSize=14;" parent="1" vertex="1">
          <mxGeometry x="230" y="30" width="550" height="100" as="geometry" />
        </mxCell>
        <mxCell id="o-W3HBe7OVP9hOMBKpzI-2" value="1. Bagaimana cara memprediksi harga saham dengan menggunakan algoritma linear regression ?" style="text;strokeColor=none;fillColor=none;spacingLeft=4;spacingRight=4;overflow=hidden;rotatable=0;points=[[0,0.5],[1,0.5]];portConstraint=eastwest;fontSize=12;" parent="o-W3HBe7OVP9hOMBKpzI-1" vertex="1">
          <mxGeometry y="26" width="550" height="30" as="geometry" />
        </mxCell>
        <mxCell id="o-W3HBe7OVP9hOMBKpzI-3" value="2. Bagaimana cara mengimplementasikan algoritma linear regression pada sebuah sistem berbasis&#xa;    website ?" style="text;strokeColor=none;fillColor=none;spacingLeft=4;spacingRight=4;overflow=hidden;rotatable=0;points=[[0,0.5],[1,0.5]];portConstraint=eastwest;fontSize=12;" parent="o-W3HBe7OVP9hOMBKpzI-1" vertex="1">
          <mxGeometry y="56" width="550" height="44" as="geometry" />
        </mxCell>
        <mxCell id="o-W3HBe7OVP9hOMBKpzI-5" value="Pengumpulan Data" style="swimlane;fontStyle=1;childLayout=stackLayout;horizontal=1;startSize=26;horizontalStack=0;resizeParent=1;resizeParentMax=0;resizeLast=0;collapsible=1;marginBottom=0;align=center;fontSize=14;" parent="1" vertex="1">
          <mxGeometry x="230" y="230" width="160" height="86" as="geometry" />
        </mxCell>
        <mxCell id="o-W3HBe7OVP9hOMBKpzI-6" value="Observasi" style="text;strokeColor=none;fillColor=none;spacingLeft=4;spacingRight=4;overflow=hidden;rotatable=0;points=[[0,0.5],[1,0.5]];portConstraint=eastwest;fontSize=12;" parent="o-W3HBe7OVP9hOMBKpzI-5" vertex="1">
          <mxGeometry y="26" width="160" height="30" as="geometry" />
        </mxCell>
        <mxCell id="o-W3HBe7OVP9hOMBKpzI-7" value="Studi Pustaka" style="text;strokeColor=none;fillColor=none;spacingLeft=4;spacingRight=4;overflow=hidden;rotatable=0;points=[[0,0.5],[1,0.5]];portConstraint=eastwest;fontSize=12;" parent="o-W3HBe7OVP9hOMBKpzI-5" vertex="1">
          <mxGeometry y="56" width="160" height="30" as="geometry" />
        </mxCell>
        <mxCell id="o-W3HBe7OVP9hOMBKpzI-9" value="Pengolahan data" style="swimlane;fontStyle=1;childLayout=stackLayout;horizontal=1;startSize=26;horizontalStack=0;resizeParent=1;resizeParentMax=0;resizeLast=0;collapsible=1;marginBottom=0;align=center;fontSize=14;" parent="1" vertex="1">
          <mxGeometry x="480" y="230" width="160" height="146" as="geometry" />
        </mxCell>
        <mxCell id="o-W3HBe7OVP9hOMBKpzI-10" value="Menyusun Data" style="text;strokeColor=none;fillColor=none;spacingLeft=4;spacingRight=4;overflow=hidden;rotatable=0;points=[[0,0.5],[1,0.5]];portConstraint=eastwest;fontSize=12;" parent="o-W3HBe7OVP9hOMBKpzI-9" vertex="1">
          <mxGeometry y="26" width="160" height="30" as="geometry" />
        </mxCell>
        <mxCell id="o-W3HBe7OVP9hOMBKpzI-11" value="Menyeleksi Atribute" style="text;strokeColor=none;fillColor=none;spacingLeft=4;spacingRight=4;overflow=hidden;rotatable=0;points=[[0,0.5],[1,0.5]];portConstraint=eastwest;fontSize=12;" parent="o-W3HBe7OVP9hOMBKpzI-9" vertex="1">
          <mxGeometry y="56" width="160" height="30" as="geometry" />
        </mxCell>
        <mxCell id="o-W3HBe7OVP9hOMBKpzI-12" value="Membersihkan Data" style="text;strokeColor=none;fillColor=none;spacingLeft=4;spacingRight=4;overflow=hidden;rotatable=0;points=[[0,0.5],[1,0.5]];portConstraint=eastwest;fontSize=12;" parent="o-W3HBe7OVP9hOMBKpzI-9" vertex="1">
          <mxGeometry y="86" width="160" height="30" as="geometry" />
        </mxCell>
        <mxCell id="o-W3HBe7OVP9hOMBKpzI-13" value="Mengintegrasikan data" style="text;strokeColor=none;fillColor=none;spacingLeft=4;spacingRight=4;overflow=hidden;rotatable=0;points=[[0,0.5],[1,0.5]];portConstraint=eastwest;fontSize=12;" parent="o-W3HBe7OVP9hOMBKpzI-9" vertex="1">
          <mxGeometry y="116" width="160" height="30" as="geometry" />
        </mxCell>
        <mxCell id="o-W3HBe7OVP9hOMBKpzI-27" value="Pengujian Algoritma" style="swimlane;fontStyle=1;childLayout=stackLayout;horizontal=1;startSize=26;horizontalStack=0;resizeParent=1;resizeParentMax=0;resizeLast=0;collapsible=1;marginBottom=0;align=center;fontSize=14;" parent="1" vertex="1">
          <mxGeometry x="480" y="454" width="160" height="86" as="geometry" />
        </mxCell>
        <mxCell id="o-W3HBe7OVP9hOMBKpzI-28" value="Excel 2016" style="text;strokeColor=none;fillColor=none;spacingLeft=4;spacingRight=4;overflow=hidden;rotatable=0;points=[[0,0.5],[1,0.5]];portConstraint=eastwest;fontSize=12;" parent="o-W3HBe7OVP9hOMBKpzI-27" vertex="1">
          <mxGeometry y="26" width="160" height="30" as="geometry" />
        </mxCell>
        <mxCell id="o-W3HBe7OVP9hOMBKpzI-29" value="Rapidminer" style="text;strokeColor=none;fillColor=none;spacingLeft=4;spacingRight=4;overflow=hidden;rotatable=0;points=[[0,0.5],[1,0.5]];portConstraint=eastwest;fontSize=12;" parent="o-W3HBe7OVP9hOMBKpzI-27" vertex="1">
          <mxGeometry y="56" width="160" height="30" as="geometry" />
        </mxCell>
        <mxCell id="o-W3HBe7OVP9hOMBKpzI-35" value="&lt;b&gt;Coding&lt;/b&gt;" style="whiteSpace=wrap;html=1;align=center;" parent="1" vertex="1">
          <mxGeometry x="510" y="600" width="100" height="40" as="geometry" />
        </mxCell>
        <mxCell id="o-W3HBe7OVP9hOMBKpzI-36" value="&lt;b&gt;Pengujian sistem menggunakan Black Box Testing&lt;/b&gt;" style="whiteSpace=wrap;html=1;align=center;" parent="1" vertex="1">
          <mxGeometry x="465.01" y="710" width="190" height="70" as="geometry" />
        </mxCell>
        <mxCell id="o-W3HBe7OVP9hOMBKpzI-37" value="&lt;b&gt;Implementasi&lt;/b&gt;" style="whiteSpace=wrap;html=1;align=center;" parent="1" vertex="1">
          <mxGeometry x="509.99" y="850" width="100" height="40" as="geometry" />
        </mxCell>
        <mxCell id="o-W3HBe7OVP9hOMBKpzI-38" value="Tujuan" style="swimlane;fontStyle=1;childLayout=stackLayout;horizontal=1;startSize=26;horizontalStack=0;resizeParent=1;resizeParentMax=0;resizeLast=0;collapsible=1;marginBottom=0;align=center;fontSize=14;" parent="1" vertex="1">
          <mxGeometry x="335.01" y="960" width="450" height="56" as="geometry" />
        </mxCell>
        <mxCell id="o-W3HBe7OVP9hOMBKpzI-39" value="1. Memudahkan investor saham dalam menganalisis prediksi harga close saham" style="text;strokeColor=none;fillColor=none;spacingLeft=4;spacingRight=4;overflow=hidden;rotatable=0;points=[[0,0.5],[1,0.5]];portConstraint=eastwest;fontSize=12;" parent="o-W3HBe7OVP9hOMBKpzI-38" vertex="1">
          <mxGeometry y="26" width="450" height="30" as="geometry" />
        </mxCell>
        <mxCell id="o-W3HBe7OVP9hOMBKpzI-42" value="" style="verticalLabelPosition=bottom;verticalAlign=top;html=1;strokeWidth=2;shape=mxgraph.arrows2.arrow;dy=0.6;dx=40;notch=0;rotation=90;fillColor=#000000;" parent="1" vertex="1">
          <mxGeometry x="272.5" y="164.5" width="95" height="30" as="geometry" />
        </mxCell>
        <mxCell id="o-W3HBe7OVP9hOMBKpzI-44" value="" style="verticalLabelPosition=bottom;verticalAlign=top;html=1;strokeWidth=2;shape=mxgraph.arrows2.arrow;dy=0.6;dx=40;notch=0;rotation=0;fillColor=#000000;" parent="1" vertex="1">
          <mxGeometry x="392" y="230" width="88" height="30" as="geometry" />
        </mxCell>
        <mxCell id="o-W3HBe7OVP9hOMBKpzI-45" value="" style="verticalLabelPosition=bottom;verticalAlign=top;html=1;strokeWidth=2;shape=mxgraph.arrows2.arrow;dy=0.6;dx=40;notch=0;rotation=90;fillColor=#000000;" parent="1" vertex="1">
          <mxGeometry x="523.75" y="399.25" width="72.5" height="30" as="geometry" />
        </mxCell>
        <mxCell id="o-W3HBe7OVP9hOMBKpzI-47" value="" style="verticalLabelPosition=bottom;verticalAlign=top;html=1;strokeWidth=2;shape=mxgraph.arrows2.arrow;dy=0.6;dx=40;notch=0;rotation=90;fillColor=#000000;" parent="1" vertex="1">
          <mxGeometry x="531.88" y="554.88" width="56.25" height="30" as="geometry" />
        </mxCell>
        <mxCell id="o-W3HBe7OVP9hOMBKpzI-48" value="" style="verticalLabelPosition=bottom;verticalAlign=top;html=1;strokeWidth=2;shape=mxgraph.arrows2.arrow;dy=0.6;dx=40;notch=0;rotation=90;fillColor=#000000;" parent="1" vertex="1">
          <mxGeometry x="525.93" y="660.94" width="68.13" height="30" as="geometry" />
        </mxCell>
        <mxCell id="o-W3HBe7OVP9hOMBKpzI-50" value="" style="endArrow=none;html=1;rounded=0;entryX=0;entryY=0.5;entryDx=0;entryDy=0;exitX=0;exitY=0.5;exitDx=0;exitDy=0;startArrow=block;startFill=1;strokeWidth=5;" parent="1" source="o-W3HBe7OVP9hOMBKpzI-35" target="o-W3HBe7OVP9hOMBKpzI-36" edge="1">
          <mxGeometry relative="1" as="geometry">
            <mxPoint x="430" y="620" as="sourcePoint" />
            <mxPoint x="590" y="620" as="targetPoint" />
            <Array as="points">
              <mxPoint x="410" y="620" />
              <mxPoint x="410" y="745" />
            </Array>
          </mxGeometry>
        </mxCell>
        <mxCell id="o-W3HBe7OVP9hOMBKpzI-51" value="Gagal" style="text;html=1;align=center;verticalAlign=middle;resizable=0;points=[];autosize=1;strokeColor=none;fillColor=none;fontSize=16;fontStyle=1" parent="1" vertex="1">
          <mxGeometry x="350" y="660.94" width="60" height="20" as="geometry" />
        </mxCell>
        <mxCell id="o-W3HBe7OVP9hOMBKpzI-52" value="" style="verticalLabelPosition=bottom;verticalAlign=top;html=1;strokeWidth=2;shape=mxgraph.arrows2.arrow;dy=0.6;dx=40;notch=0;rotation=90;fillColor=#000000;" parent="1" vertex="1">
          <mxGeometry x="525.93" y="800" width="68.13" height="30" as="geometry" />
        </mxCell>
        <mxCell id="o-W3HBe7OVP9hOMBKpzI-53" value="" style="verticalLabelPosition=bottom;verticalAlign=top;html=1;strokeWidth=2;shape=mxgraph.arrows2.arrow;dy=0.6;dx=40;notch=0;rotation=90;fillColor=#000000;" parent="1" vertex="1">
          <mxGeometry x="525.93" y="910" width="68.13" height="30" as="geometry" />
        </mxCell>
      </root>
    </mxGraphModel>
  </diagram>
</mxfile>
